<?xml version="1.0" standalone="no"?>
<!DOCTYPE svg PUBLIC "-//W3C//DTD SVG 20010904//EN"
 "http://www.w3.org/TR/2001/REC-SVG-20010904/DTD/svg10.dtd">
<svg version="1.0" xmlns="http://www.w3.org/2000/svg"
 width="1668.000000pt" height="1668.000000pt" viewBox="0 0 1668.000000 1668.000000"
 preserveAspectRatio="xMidYMid meet">

<g transform="translate(0.000000,1668.000000) scale(0.100000,-0.100000)"
fill="#000000" stroke="none">
<path d="M6205 13143 c-610 -27 -1194 -177 -1729 -445 -197 -98 -276 -144
-471 -274 -903 -598 -1551 -1509 -1805 -2539 -71 -286 -169 -923 -374 -2415
-53 -382 -111 -798 -130 -925 -98 -652 -100 -945 -6 -1310 21 -82 54 -190 73
-240 309 -803 1035 -1357 1895 -1446 161 -16 445 -7 602 21 639 112 1192 484
1538 1033 31 51 246 469 477 931 314 627 427 844 448 860 l28 21 1589 0 1589
0 28 -21 c32 -24 26 -12 408 -784 429 -868 518 -1030 687 -1242 382 -480 913
-752 1610 -824 153 -15 163 -15 335 6 235 28 348 52 523 110 331 109 601 273
849 514 138 135 217 228 313 372 275 407 415 926 378 1397 -6 78 -107 816
-225 1642 -117 825 -225 1588 -240 1695 -141 1033 -560 1903 -1250 2595 -752
755 -1720 1186 -2835 1265 -129 9 -4105 12 -4305 3z m3990 -963 c182 -5 391
-16 465 -25 946 -111 1763 -579 2316 -1327 299 -404 518 -908 618 -1427 14
-69 59 -371 101 -671 42 -300 148 -1042 235 -1650 87 -608 161 -1141 165
-1185 16 -200 -38 -465 -134 -660 -134 -273 -314 -455 -586 -590 -188 -94
-316 -126 -535 -132 -189 -6 -295 8 -445 58 -111 37 -258 113 -350 181 -94 69
-227 206 -300 308 -62 87 -346 641 -815 1587 l-248 501 -74 76 c-54 54 -93 84
-140 106 -136 64 -14 61 -2161 58 l-1952 -3 -66 -22 c-36 -13 -92 -40 -125
-61 -128 -83 -118 -65 -654 -1137 -273 -546 -517 -1023 -550 -1072 -194 -295
-472 -486 -810 -559 -104 -22 -317 -29 -434 -15 -203 26 -414 106 -583 223
-98 67 -234 202 -302 298 -102 145 -188 344 -222 515 -8 42 -14 128 -13 215 1
152 10 225 275 2130 214 1542 227 1628 293 1855 108 377 302 766 538 1078 496
658 1242 1123 2057 1282 320 62 223 58 1821 65 806 3 1650 6 1875 7 226 1 559
-2 740 -7z"/>
<path d="M5833 11215 c-127 -28 -256 -124 -315 -232 -52 -94 -58 -143 -58
-440 l0 -273 -257 0 c-280 0 -337 -8 -439 -56 -66 -31 -165 -121 -201 -181
-82 -141 -87 -327 -13 -473 31 -60 123 -154 186 -190 99 -57 179 -70 439 -70
214 0 235 -2 256 -19 24 -19 24 -20 26 -266 1 -150 6 -266 13 -298 45 -192
200 -336 398 -369 238 -40 474 118 537 357 11 45 15 116 15 303 l0 243 25 24
24 25 229 0 c193 0 240 3 304 19 101 26 170 62 236 124 97 93 142 200 142 342
0 237 -153 419 -396 470 -50 11 -138 15 -316 15 l-248 0 0 268 c0 290 -6 335
-56 434 -31 62 -114 151 -170 184 -104 61 -249 85 -361 59z"/>
<path d="M10660 11220 c-380 -68 -532 -527 -267 -808 96 -101 201 -144 347
-144 148 0 250 43 351 148 88 94 128 196 129 329 0 131 -41 233 -131 330 -112
119 -270 173 -429 145z"/>
<path d="M9660 10252 c-136 -36 -247 -128 -312 -258 -36 -73 -41 -93 -46 -172
-8 -150 34 -267 134 -373 182 -190 479 -198 670 -17 105 99 154 210 154 346
-1 142 -38 237 -131 336 -123 131 -297 183 -469 138z"/>
<path d="M11593 10256 c-258 -63 -422 -327 -362 -585 27 -118 138 -260 246
-315 188 -95 400 -65 549 76 106 100 156 214 156 353 -1 309 -293 542 -589
471z"/>
<path d="M10665 9300 c-196 -35 -341 -167 -390 -357 -86 -329 205 -651 538
-595 192 32 343 168 392 353 32 120 9 278 -56 380 -37 58 -123 140 -175 167
-89 45 -220 67 -309 52z"/>
</g>
</svg>
