<svg id="Layer_2" data-name="Layer 2" xmlns="http://www.w3.org/2000/svg" viewBox="0 0 400 400"><g id="ed2m8n"><path d="M360.8,253.67c-3.52-25.64-7.46-51.23-10.87-76.89C342.77,123,299.28,84.65,245.05,84.64q-45.13,0-90.3,0c-3.89,0-7.79.17-11.67.52-45.47,4-84.39,39.7-92,84.84-3.7,22.08-6.53,44.3-9.63,66.48-1.16,8.3-2.78,16.65-2.78,25a54.19,54.19,0,0,0,102.71,23.65q9.24-18.33,18.33-36.76a3.73,3.73,0,0,1,3.91-2.37q36.3.09,72.6,0a3.68,3.68,0,0,1,3.87,2.42c6.14,12.46,12.15,25,18.66,37.26,10.17,19.19,26.54,28.62,49.12,29.69,3.15-.44,7.36-.71,11.43-1.65A54.21,54.21,0,0,0,360.8,253.67Zm-44.19,36.85c-15,4.84-30.42-1.79-37.76-16.35-7.2-14.27-14.43-28.54-21.43-42.92-2.82-5.81-7-8.45-13.49-8.42q-44,.21-87.91,0c-6.46,0-10.69,2.48-13.53,8.33-7.12,14.65-14.46,29.21-21.84,43.73a31.1,31.1,0,0,1-58-6.64,27.6,27.6,0,0,1-.57-9.79q5.46-40.88,11.27-81.7c5.61-39.58,39.81-68.84,80.63-69,15.31-.07,30.61,0,45.91,0h0c15.81,0,31.62-.33,47.41.06,41.95,1,73.87,30.15,79.7,72.17,3.5,25.15,7.14,50.28,10.77,75.41C340.06,271.2,331.33,285.77,316.61,290.52Z"/><path d="M176.93,165.4c0,6.57-5.22,11.42-12.39,11.51-2.6,0-5.21.12-7.8,0-2.17-.14-3.09.47-3,2.8.18,3,.08,6,0,9a11.49,11.49,0,0,1-23,0c-.09-3.09-.14-6.2,0-9.29.08-2-.69-2.62-2.62-2.53-2.89.14-5.8.12-8.7,0-6.75-.19-11.78-5.12-11.79-11.49,0-6.54,5.07-11.55,11.92-11.66,3.58-.06,7.16,0,11.19,0,0-4.26-.15-8.24,0-12.2a11.5,11.5,0,0,1,23,.3c.11,2.8,0,5.6,0,8.4v3.5c3.8,0,7.18,0,10.55,0C171.7,153.79,176.94,158.67,176.93,165.4Z"/><path d="M292.16,165.47a11.57,11.57,0,1,1-11.5-11.7A11.67,11.67,0,0,1,292.16,165.47Z"/><path d="M246.05,165.23a11.56,11.56,0,1,1-11.73-11.47A11.62,11.62,0,0,1,246.05,165.23Z"/><path d="M269,188.38a11.5,11.5,0,1,1-11.65-11.5A11.4,11.4,0,0,1,269,188.38Z"/><path d="M269.06,142.57a11.52,11.52,0,1,1-11.38-11.81A11.39,11.39,0,0,1,269.06,142.57Z"/></g></svg>