<?xml version="1.0" encoding="UTF-8" standalone="no"?>
<!DOCTYPE svg PUBLIC "-//W3C//DTD SVG 1.1//EN" "http://www.w3.org/Graphics/SVG/1.1/DTD/svg11.dtd">
<svg width="100%" height="100%" viewBox="0 0 629 180" version="1.1" xmlns="http://www.w3.org/2000/svg" xmlns:xlink="http://www.w3.org/1999/xlink" xml:space="preserve" xmlns:serif="http://www.serif.com/" style="fill-rule:evenodd;clip-rule:evenodd;stroke-linejoin:round;stroke-miterlimit:2;">
    <g transform="matrix(-0.47371,0.880681,0.880681,0.47371,335.507,42.7513)">
        <path d="M16.916,-19.277C27.51,-19.278 36.097,-12.049 36.098,-3.133C36.098,5.784 27.51,13.012 16.916,13.013C6.322,13.012 -14.019,-3.133 -14.019,-3.133C-14.019,-3.133 6.322,-19.277 16.916,-19.277" style="fill:rgb(104,199,64);fill-rule:nonzero;"/>
    </g>
    <g transform="matrix(1,0,0,1,106.967,101.131)">
        <path d="M0,0.674L0,0.338C0,-33.985 26.92,-60.906 63.431,-60.906C82.883,-60.906 96.984,-55.257 108.946,-45.637C110.206,-44.623 110.417,-42.787 109.384,-41.545L93.834,-22.858C92.855,-21.681 91.114,-21.476 89.905,-22.415C82.181,-28.412 74.23,-31.798 63.599,-31.798C46.605,-31.798 33.482,-17.497 33.482,0.506L33.482,0.842C33.482,19.855 46.774,33.483 65.45,33.483C72.633,33.483 78.289,32.094 82.922,29.445C83.79,28.948 84.293,27.994 84.293,26.995L84.293,17.166C84.293,15.584 83.012,14.303 81.431,14.303L63.938,14.303C62.357,14.303 61.075,13.021 61.075,11.44L61.075,-6.726C61.075,-8.308 62.357,-9.59 63.938,-9.59L112.389,-9.59C113.971,-9.59 115.252,-8.308 115.252,-6.726L115.252,42.029C115.252,42.902 114.866,43.733 114.184,44.276C101.817,54.114 84.867,61.58 64.104,61.58C27.425,61.58 0,36.344 0,0.674" style="fill:white;fill-rule:nonzero;"/>
    </g>
    <g transform="matrix(1,0,0,1,231.144,102.815)">
        <path d="M0,26.078L0,-30.618C0,-32.199 1.282,-33.482 2.863,-33.482L29.105,-33.482C30.686,-33.482 31.967,-32.199 31.967,-30.618L31.967,15.814C31.967,25.742 37.184,31.127 44.923,31.127C52.494,31.127 58.215,25.742 58.215,15.814L58.215,-30.618C58.215,-32.199 59.497,-33.482 61.078,-33.482L87.319,-33.482C88.9,-33.482 90.182,-32.199 90.182,-30.618L90.182,54.679C90.182,56.26 88.9,57.541 87.319,57.541L61.078,57.541C59.497,57.541 58.215,56.26 58.215,54.679L58.215,52.537C58.215,49.998 55.191,48.754 53.345,50.497C47.881,55.656 40.706,59.56 30.958,59.56C11.61,59.56 0,46.773 0,26.078" style="fill:white;fill-rule:nonzero;"/>
    </g>
    <g transform="matrix(1,0,0,1,385.098,102.984)">
        <path d="M0,24.395L0,22.187C0,20.957 -0.772,19.851 -1.941,19.47C-4.914,18.499 -8.626,17.833 -12.451,17.833C-21.705,17.833 -27.089,22.376 -27.089,29.107L-27.089,29.443C-27.089,35.667 -22.377,39.37 -15.816,39.37C-6.562,39.37 0,33.482 0,24.395M-57.878,31.294L-57.878,30.958C-57.878,12.113 -43.578,2.354 -22.209,2.354C-13.797,2.354 -5.553,4.038 -0.336,5.887L-0.336,4.374C-0.336,-5.047 -6.225,-10.432 -18.507,-10.432C-26.968,-10.432 -33.726,-8.992 -40.745,-6.459C-42.289,-5.901 -43.983,-6.778 -44.441,-8.354L-49.41,-25.427C-49.829,-26.867 -49.063,-28.376 -47.664,-28.913C-38.098,-32.575 -27.689,-34.997 -13.292,-34.997C3.029,-34.997 14.132,-31.126 21.368,-23.893C28.266,-17.163 31.126,-7.74 31.126,5.046L31.126,54.51C31.126,56.091 29.844,57.373 28.263,57.373L2.358,57.373C0.776,57.373 -0.505,56.091 -0.505,54.51C-0.505,52.118 -3.247,50.802 -5.135,52.27C-10.812,56.682 -18.031,59.392 -27.257,59.392C-44.587,59.392 -57.878,49.464 -57.878,31.294" style="fill:white;fill-rule:nonzero;"/>
    </g>
    <g transform="matrix(1,0,0,1,415.927,161.03)">
        <path d="M0,-91.696L27.364,-91.696C28.601,-91.696 29.697,-90.902 30.083,-89.728L44.215,-46.793C45.078,-44.169 48.79,-44.169 49.654,-46.793L63.785,-89.728C64.171,-90.902 65.268,-91.696 66.504,-91.696L93.363,-91.696C95.384,-91.696 96.769,-89.658 96.024,-87.778L61.952,-1.808C61.52,-0.716 60.464,0 59.29,0L34.073,0C32.899,0 31.844,-0.716 31.412,-1.808L-2.662,-87.778C-3.406,-89.658 -2.021,-91.696 0,-91.696" style="fill:white;fill-rule:nonzero;"/>
    </g>
    <g transform="matrix(1,0,0,1,565.333,102.984)">
        <path d="M0,24.395L0,22.187C0,20.957 -0.772,19.851 -1.941,19.47C-4.914,18.499 -8.626,17.833 -12.451,17.833C-21.705,17.833 -27.089,22.376 -27.089,29.107L-27.089,29.443C-27.089,35.667 -22.377,39.37 -15.816,39.37C-6.562,39.37 0,33.482 0,24.395M-57.878,31.294L-57.878,30.958C-57.878,12.113 -43.578,2.354 -22.209,2.354C-13.797,2.354 -5.553,4.038 -0.336,5.887L-0.336,4.374C-0.336,-5.047 -6.225,-10.432 -18.507,-10.432C-26.968,-10.432 -33.726,-8.992 -40.745,-6.459C-42.289,-5.901 -43.983,-6.778 -44.441,-8.354L-49.41,-25.427C-49.829,-26.867 -49.063,-28.376 -47.664,-28.913C-38.098,-32.575 -27.689,-34.997 -13.292,-34.997C3.028,-34.997 14.132,-31.126 21.368,-23.893C28.266,-17.163 31.126,-7.74 31.126,5.046L31.126,54.51C31.126,56.091 29.844,57.373 28.263,57.373L2.358,57.373C0.776,57.373 -0.505,56.091 -0.505,54.51C-0.505,52.118 -3.247,50.802 -5.135,52.27C-10.812,56.682 -18.031,59.392 -27.257,59.392C-44.587,59.392 -57.878,49.464 -57.878,31.294" style="fill:white;fill-rule:nonzero;"/>
    </g>
    <g transform="matrix(0,-1,-1,0,608.109,119.966)">
        <path d="M-20.191,-20.191C-9.04,-20.191 0,-11.151 0,0C0,11.151 -9.04,20.191 -20.191,20.191C-31.342,20.191 -40.382,11.151 -40.382,0C-40.382,-11.151 -31.342,-20.191 -20.191,-20.191" style="fill:rgb(1,21,47);fill-rule:nonzero;"/>
    </g>
    <g transform="matrix(-0.925609,0.378482,0.378482,0.925609,354.768,77.755)">
        <path d="M14.206,-34.631C25.492,-34.632 34.641,-26.931 34.641,-17.433C34.641,-7.933 25.492,-0.234 14.206,-0.233C2.92,-0.234 -18.749,-17.432 -18.749,-17.432C-18.749,-17.432 2.921,-34.631 14.206,-34.631" style="fill:rgb(53,176,0);fill-rule:nonzero;"/>
    </g>
    <g transform="matrix(1,0,0,1,108.461,71.8669)">
        <path d="M0,53.123C-6.425,88.458 -34.361,105.681 -63.981,100.295C-93.6,94.909 -113.686,68.955 -107.261,33.619C-104.502,18.451 -81.62,1.431 -75.563,-16.347C-68.308,-37.638 -51.367,-52.558 -39.345,-35.192C-21.726,-47.39 -11.048,-27.227 -11.854,-4.118C-12.503,14.5 2.723,38.147 0,53.123" style="fill:rgb(104,199,64);fill-rule:nonzero;"/>
    </g>
    <g transform="matrix(1,0,0,1,69.1178,-0.340705)">
        <path d="M0,40.44C-0.321,40.44 -0.647,40.393 -0.971,40.297C-2.784,39.762 -3.82,37.859 -3.284,36.045C3.737,12.258 13.911,1.79 14.34,1.355C15.671,0.013 17.837,0 19.181,1.332C20.524,2.661 20.535,4.828 19.206,6.171C19.12,6.258 9.765,16.015 3.281,37.985C2.841,39.473 1.478,40.44 0,40.44" style="fill:rgb(1,21,47);fill-rule:nonzero;"/>
    </g>
    <g transform="matrix(0.999887,0.0150613,0.0150613,-0.999887,85.2135,44.8081)">
        <path d="M0.188,-0.069C-7.959,-0.068 -14.564,5.49 -14.564,12.348C-14.563,19.204 -7.959,24.763 0.188,24.763C8.334,24.763 23.978,12.348 23.978,12.348C23.978,12.348 8.334,-0.068 0.188,-0.069" style="fill:rgb(53,176,0);fill-rule:nonzero;"/>
    </g>
    <g transform="matrix(1,0,0,1,39.9996,142.141)">
        <path d="M0,0.815C0,0.815 40.043,57.857 87.88,28.787C131.468,2.299 100.211,-57.042 100.211,-57.042" style="fill:rgb(53,176,0);fill-rule:nonzero;"/>
    </g>
    <g transform="matrix(-0.500001,-0.866025,-0.866025,0.500001,39.9989,85.0992)">
        <path d="M-50.105,-86.786C-68.326,-86.786 -83.097,-60.883 -83.096,-28.929C-83.097,3.024 -68.326,28.928 -50.105,28.928C-31.885,28.928 -17.114,3.024 -17.114,-28.93C-17.115,-60.883 -31.885,-86.786 -50.105,-86.786" style="fill:rgb(244,142,187);fill-rule:nonzero;"/>
    </g>
    <g transform="matrix(1,0,0,1,84.8761,115.52)">
        <path d="M0,-18.735C-13.341,-12.326 -23.605,-3.72 -28.026,3.926C-29.434,6.361 -26.803,9.147 -24.264,7.94L36.43,-20.928C38.96,-22.131 38.472,-25.901 35.711,-26.378C26.982,-27.882 13.597,-25.268 0,-18.735" style="fill:rgb(213,0,140);fill-rule:nonzero;"/>
    </g>
    <g transform="matrix(1,0,0,1,100.111,107.66)">
        <path d="M0,20.835C15.245,13.511 26.478,3.316 29.563,-5.035C30.464,-7.472 27.956,-9.771 25.612,-8.651L-39.236,22.321C-41.571,23.437 -41.367,26.805 -38.925,27.661C-30.524,30.606 -15.398,28.232 0,20.835" style="fill:rgb(213,0,140);fill-rule:nonzero;"/>
    </g>
</svg>
