<svg id="Layer_1" data-name="Layer 1" xmlns="http://www.w3.org/2000/svg" viewBox="0 0 800 800"><defs><style>.cls-1{fill:#d2007d;}</style></defs><g id="Button_Icon-2" data-name="Button Icon-2"><g id="Group_200-2" data-name="Group 200-2"><path id="Icon_awesome-plus" data-name="Icon awesome-plus" class="cls-1" d="M719,320.27H479.73V81a53.17,53.17,0,0,0-53.17-53.16H373.44A53.17,53.17,0,0,0,320.27,81V320.27H81a53.17,53.17,0,0,0-53.16,53.17v53.17A53.16,53.16,0,0,0,81,479.77H320.27V719a53.17,53.17,0,0,0,53.17,53.12h53.12A53.17,53.17,0,0,0,479.73,719V479.73H719a53.17,53.17,0,0,0,53.16-53.17V373.44A53.17,53.17,0,0,0,719,320.27Z"/></g></g></svg>