<svg id="Layer_1" data-name="Layer 1" xmlns="http://www.w3.org/2000/svg" viewBox="0 0 800 800"><defs><style>.cls-1{fill:#d2007d;}</style></defs><path class="cls-1" d="M624.1,434.8a24.9,24.9,0,0,0-24.9,24.9v99.6a24.93,24.93,0,0,1-24.9,24.9H225.7a24.93,24.93,0,0,1-24.9-24.9V459.7a24.9,24.9,0,0,0-49.8,0v99.6A74.78,74.78,0,0,0,225.7,634H574.3A74.78,74.78,0,0,0,649,559.3V459.7A24.9,24.9,0,0,0,624.1,434.8Z"/><path class="cls-1" d="M382.39,477.3a25,25,0,0,0,35.22,0l124.5-124.49a24.9,24.9,0,0,0-35.22-35.22l-82,82V160.9a24.9,24.9,0,1,0-49.8,0V399.59l-82-82a24.9,24.9,0,0,0-35.22,35.22Z"/></svg>