<svg id="Layer_1" data-name="Layer 1" xmlns="http://www.w3.org/2000/svg" viewBox="0 0 800 800"><defs><style>.cls-1{fill:#d2007d;}</style></defs><path class="cls-1" d="M623.85,217.72a22.81,22.81,0,0,0-1.19-6.13c-.25-.73-.49-1.42-.81-2.13a23,23,0,0,0-4.52-6.8,22.66,22.66,0,0,0-6.8-4.51,21.15,21.15,0,0,0-2.13-.81,23,23,0,0,0-6-1.18c-.64,0-1.24-.17-1.87-.16a23.25,23.25,0,0,0-7.11,1.19L131.46,358.86a23.1,23.1,0,0,0-1.75,42.9l199.74,88.79,88.78,199.74A23.08,23.08,0,0,0,439.33,704l.94,0a23.09,23.09,0,0,0,20.86-15.44L622.8,226.63a22.86,22.86,0,0,0,1.2-7.14C624,218.89,623.88,218.32,623.85,217.72Zm-110.74,56.5L341.84,445.5,201.7,383.22ZM436.77,618.29,374.49,478.16,545.77,306.88Z"/></svg>